<svg width="20" height="20" viewBox="0 0 20 20" fill="none" xmlns="http://www.w3.org/2000/svg">
<g id="carbon:tag">
<path id="Vector" d="M6.25 8.75C5.75555 8.75 5.2722 8.60338 4.86108 8.32868C4.44995 8.05397 4.12952 7.66353 3.9403 7.20671C3.75108 6.74989 3.70157 6.24723 3.79804 5.76228C3.8945 5.27732 4.1326 4.83187 4.48223 4.48223C4.83187 4.1326 5.27732 3.8945 5.76228 3.79804C6.24723 3.70157 6.74989 3.75108 7.20671 3.9403C7.66353 4.12952 8.05397 4.44995 8.32868 4.86108C8.60338 5.2722 8.75 5.75555 8.75 6.25C8.74917 6.91279 8.48552 7.54819 8.01685 8.01685C7.54819 8.48552 6.91279 8.74917 6.25 8.75ZM6.25 5C6.00283 4.99975 5.76113 5.07279 5.55546 5.20988C5.34979 5.34698 5.18938 5.54196 5.0945 5.7702C4.99963 5.99844 4.97455 6.24969 5.02244 6.49218C5.07033 6.73467 5.18903 6.95752 5.36355 7.13256C5.53806 7.3076 5.76055 7.42697 6.0029 7.47558C6.24524 7.5242 6.49656 7.49987 6.72509 7.40569C6.95361 7.3115 7.14908 7.15167 7.28679 6.94641C7.42449 6.74115 7.49826 6.49967 7.49875 6.2525C7.49908 5.92087 7.36774 5.60266 7.13359 5.36781C6.89944 5.13296 6.58164 5.00066 6.25 5Z" fill="#F34A25"/>
<path id="Vector_2" d="M10.4025 18.3844L1.61625 9.59625C1.38197 9.36204 1.25024 9.0444 1.25 8.71313V2.5C1.25 2.16848 1.3817 1.85054 1.61612 1.61612C1.85054 1.3817 2.16848 1.25 2.5 1.25H8.71312C9.04462 1.25007 9.36251 1.38181 9.59687 1.61625L18.3844 10.4025C18.6187 10.6369 18.7504 10.9548 18.7504 11.2863C18.7504 11.6177 18.6187 11.9356 18.3844 12.17L12.17 18.3844C12.0539 18.5005 11.9161 18.5926 11.7644 18.6555C11.6127 18.7183 11.4501 18.7507 11.2859 18.7507C11.1217 18.7507 10.9592 18.7183 10.8075 18.6555C10.6558 18.5926 10.5186 18.5005 10.4025 18.3844ZM2.5 2.5V8.71375L11.2862 17.5L17.5 11.2863L8.71375 2.5H2.5Z" fill="#F34A25"/>
</g>
</svg>
