<svg width="20" height="19" viewBox="0 0 20 19" fill="none" xmlns="http://www.w3.org/2000/svg">
<g id="controller-wireless--remote-gaming-drones-drone-control-controller-technology-console">
<path id="Vector 501" d="M3.88086 13.8086H6.24086" stroke="#F34A25" stroke-linecap="round" stroke-linejoin="round"/>
<path id="Vector 510" d="M5.06055 12.6284V14.9884" stroke="#F34A25" stroke-linecap="round" stroke-linejoin="round"/>
<path id="Union" d="M14.7327 9.36572H5.39982V9.37286C4.63039 9.33019 3.86308 9.48839 3.17327 9.83191C2.48346 10.1754 1.89486 10.6925 1.46528 11.3322C1.0357 11.972 0.779919 12.7125 0.723052 13.481C0.666185 14.2496 0.81019 15.0197 1.14092 15.7157C1.47166 16.4117 1.97774 17.0098 2.60948 17.4511C3.24122 17.8924 3.97688 18.1618 4.74422 18.2328C5.51155 18.3039 6.28417 18.1741 6.98619 17.8563C7.68821 17.5385 8.2955 17.0435 8.74839 16.42H11.1355C11.5824 17.035 12.1795 17.5251 12.8698 17.8433C13.5602 18.1616 14.3206 18.2974 15.0785 18.2377C15.8363 18.1781 16.5662 17.925 17.1982 17.5027C17.8303 17.0803 18.3434 16.5029 18.6885 15.8256C19.0336 15.1482 19.1992 14.3937 19.1693 13.6341C19.1395 12.8745 18.9152 12.1353 18.518 11.4871C18.1208 10.839 17.564 10.3036 16.9007 9.93217C16.2375 9.56075 15.49 9.36571 14.7298 9.36572H14.7327Z" stroke="#F34A25" stroke-linecap="round" stroke-linejoin="round"/>
<g id="Group 626">
<path id="Vector" d="M13.3806 15.3456C13.2859 15.3456 13.195 15.308 13.128 15.241C13.0611 15.1741 13.0234 15.0832 13.0234 14.9885C13.0234 14.8938 13.0611 14.8029 13.128 14.736C13.195 14.669 13.2859 14.6313 13.3806 14.6313" stroke="#F34A25" stroke-linecap="round" stroke-linejoin="round"/>
<path id="Vector_2" d="M13.3809 15.3456C13.4756 15.3456 13.5664 15.308 13.6334 15.241C13.7004 15.1741 13.738 15.0832 13.738 14.9885C13.738 14.8938 13.7004 14.8029 13.6334 14.736C13.5664 14.669 13.4756 14.6313 13.3809 14.6313" stroke="#F34A25" stroke-linecap="round" stroke-linejoin="round"/>
</g>
<g id="Group 627">
<path id="Vector_3" d="M15.7907 12.8456C15.696 12.8456 15.6052 12.808 15.5382 12.741C15.4712 12.6741 15.4336 12.5832 15.4336 12.4885C15.4336 12.3938 15.4712 12.3029 15.5382 12.236C15.6052 12.169 15.696 12.1313 15.7907 12.1313" stroke="#F34A25" stroke-linecap="round" stroke-linejoin="round"/>
<path id="Vector_4" d="M15.791 12.8456C15.8857 12.8456 15.9766 12.808 16.0436 12.741C16.1105 12.6741 16.1482 12.5832 16.1482 12.4885C16.1482 12.3938 16.1105 12.3029 16.0436 12.236C15.9766 12.169 15.8857 12.1313 15.791 12.1313" stroke="#F34A25" stroke-linecap="round" stroke-linejoin="round"/>
</g>
<path id="Vector 524" d="M4.56641 2.0715C5.24641 1.6215 7.28355 0.714355 10.0007 0.714355C12.7178 0.714355 14.755 1.62007 15.435 2.0715" stroke="#F34A25" stroke-linecap="round" stroke-linejoin="round"/>
<path id="Vector 525" d="M7.2832 5.46861C7.73606 5.2429 8.91463 4.79004 10.0003 4.79004C11.0861 4.79004 12.2646 5.2429 12.7175 5.46861" stroke="#F34A25" stroke-linecap="round" stroke-linejoin="round"/>
</g>
</svg>
