<svg width="20" height="16" viewBox="0 0 20 16" fill="none" xmlns="http://www.w3.org/2000/svg">
<g id="Group">
<path id="Vector" d="M3.57169 9.42871L1.02883 13.0716C0.914128 13.295 0.860336 13.5446 0.872876 13.7954C0.885417 14.0462 0.963845 14.2893 1.10026 14.5001C1.22893 14.706 1.40795 14.8757 1.62041 14.9932C1.83287 15.1107 2.07177 15.1721 2.31454 15.1716H17.686C17.9288 15.1721 18.1676 15.1107 18.3801 14.9932C18.5926 14.8757 18.7716 14.706 18.9003 14.5001C19.0256 14.283 19.0917 14.0366 19.0917 13.7859C19.0917 13.5351 19.0256 13.2887 18.9003 13.0716L16.4288 9.42871" stroke="#F34A25" stroke-linecap="round" stroke-linejoin="round"/>
<path id="Vector_2" d="M5.00084 0.857178C4.62196 0.857178 4.25859 1.00769 3.99068 1.2756C3.72278 1.54351 3.57227 1.90687 3.57227 2.28575V9.42861H16.4294V2.28575C16.4294 1.90687 16.2789 1.54351 16.011 1.2756C15.7431 1.00769 15.3797 0.857178 15.0008 0.857178H5.00084Z" stroke="#F34A25" stroke-linecap="round" stroke-linejoin="round"/>
</g>
</svg>
