<svg width="22" height="16" viewBox="0 0 22 16" fill="none" xmlns="http://www.w3.org/2000/svg">
<path d="M3.76388 10.2856L0.892932 13.9104C0.76343 14.1327 0.702698 14.3811 0.716856 14.6306C0.731015 14.8802 0.819563 15.1221 0.973577 15.3318C1.11885 15.5367 1.32096 15.7055 1.56084 15.8224C1.80071 15.9393 2.07043 16.0004 2.34453 15.9999H19.6992C19.9733 16.0004 20.243 15.9393 20.4829 15.8224C20.7228 15.7055 20.9249 15.5367 21.0702 15.3318C21.2117 15.1157 21.2863 14.8706 21.2863 14.6211C21.2863 14.3716 21.2117 14.1265 21.0702 13.9104L18.2799 10.2856" fill="#F34A25"/>
<path d="M5.66639 0C5.26225 0 4.87466 0.160544 4.58889 0.446313C4.30312 0.732083 4.14258 1.11967 4.14258 1.52381V9.14285H17.8569V1.52381C17.8569 1.11967 17.6963 0.732083 17.4105 0.446313C17.1248 0.160544 16.7372 0 16.3331 0H5.66639Z" fill="#F34A25"/>
</svg>
