<svg width="18" height="20" viewBox="0 0 18 20" fill="none" xmlns="http://www.w3.org/2000/svg">
<g id="hotel-laundry--laundry-machine-hotel">
<path id="Vector" d="M15.4283 0.714355H2.57115C2.19227 0.714355 1.82891 0.864865 1.561 1.13277C1.29309 1.40068 1.14258 1.76405 1.14258 2.14293V17.8572C1.14258 18.2361 1.29309 18.5995 1.561 18.8674C1.82891 19.1353 2.19227 19.2858 2.57115 19.2858H15.4283C15.8072 19.2858 16.1705 19.1353 16.4384 18.8674C16.7064 18.5995 16.8569 18.2361 16.8569 17.8572V2.14293C16.8569 1.76405 16.7064 1.40068 16.4384 1.13277C16.1705 0.864865 15.8072 0.714355 15.4283 0.714355Z" stroke="#F34A25" stroke-width="1.03238" stroke-linecap="round" stroke-linejoin="round"/>
<path id="Vector_2" d="M13.2277 12.8574H12.0263C10.9763 12.8574 9.94056 12.6131 9.00056 12.1431C8.0611 11.6734 7.02519 11.4289 5.97484 11.4289H4.77484M13.2863 12.1431C13.2863 12.7059 13.1754 13.2632 12.96 13.7832C12.7447 14.3032 12.429 14.7756 12.031 15.1736C11.6331 15.5716 11.1606 15.8872 10.6406 16.1026C10.1207 16.318 9.56337 16.4288 9.00056 16.4288C8.43775 16.4288 7.88045 16.318 7.36049 16.1026C6.84052 15.8872 6.36807 15.5716 5.9701 15.1736C5.57214 14.7756 5.25645 14.3032 5.04107 13.7832C4.8257 13.2632 4.71484 12.7059 4.71484 12.1431C4.71484 11.0065 5.16637 9.91641 5.9701 9.11268C6.77383 8.30895 7.86392 7.85742 9.00056 7.85742C10.1372 7.85742 11.2273 8.30895 12.031 9.11268C12.8347 9.91641 13.2863 11.0065 13.2863 12.1431Z" stroke="#F34A25" stroke-width="1.03238" stroke-linecap="round" stroke-linejoin="round"/>
<path id="Vector_3" d="M1.14258 5H16.8569" stroke="#F34A25" stroke-width="1.03238" stroke-linecap="round" stroke-linejoin="round"/>
</g>
</svg>
