<svg width="20" height="20" viewBox="0 0 20 20" fill="none" xmlns="http://www.w3.org/2000/svg">
<g id="icon tank">
<path id="Vector" d="M18.75 8.125V6.875H11.6362L11.1844 5.97063C11.1325 5.86673 11.0526 5.77936 10.9538 5.71831C10.855 5.65726 10.7411 5.62495 10.625 5.625H5.625C5.45924 5.625 5.30027 5.69085 5.18306 5.80806C5.06585 5.92527 5 6.08424 5 6.25V9.375H2.5V10.625H14.1488L16.3988 12.5H1.875C1.70924 12.5 1.55027 12.5658 1.43306 12.6831C1.31585 12.8003 1.25 12.9592 1.25 13.125V14.375C1.25099 15.2035 1.58055 15.9978 2.16639 16.5836C2.75222 17.1694 3.5465 17.499 4.375 17.5H15.625C16.4535 17.499 17.2478 17.1694 17.8336 16.5836C18.4194 15.9978 18.749 15.2035 18.75 14.375V13.125C18.75 13.0333 18.7299 12.9427 18.691 12.8596C18.6521 12.7766 18.5954 12.7031 18.525 12.6444L14.775 9.51937C14.6626 9.42607 14.5211 9.375 14.375 9.375H12.8862L12.2612 8.125H18.75ZM17.5 14.375C17.4995 14.8721 17.3018 15.3488 16.9503 15.7003C16.5988 16.0518 16.1221 16.2495 15.625 16.25H4.375C3.87787 16.2495 3.40125 16.0518 3.04972 15.7003C2.6982 15.3488 2.5005 14.8721 2.5 14.375V13.75H17.5V14.375ZM6.25 9.375V6.875H10.2388L11.4888 9.375H6.25Z" fill="#F34A25"/>
</g>
</svg>
