<svg width="20" height="20" viewBox="0 0 20 20" fill="none" xmlns="http://www.w3.org/2000/svg">
<g id="icon grow">
<path id="Vector" d="M15.625 1.25C14.2399 1.25228 12.8877 1.67253 11.7452 2.45578C10.6028 3.23903 9.72334 4.34882 9.22188 5.64C8.82013 5.05732 8.28291 4.58089 7.65638 4.25168C7.02985 3.92247 6.33276 3.75031 5.625 3.75H3.75V5.625C3.75132 6.78492 4.21268 7.89695 5.03287 8.71713C5.85305 9.53732 6.96508 9.99868 8.125 10H8.75V15.6562C7.31445 15.7966 5.97269 16.4328 4.95562 17.4556L5.83938 18.3394C6.36218 17.8166 6.99443 17.4162 7.69058 17.1672C8.38672 16.9181 9.12944 16.8265 9.86523 16.899C10.601 16.9716 11.3116 17.2063 11.9457 17.5865C12.5799 17.9666 13.1218 18.4827 13.5325 19.0975L14.5706 18.4019C14.0583 17.6363 13.3827 16.9937 12.5924 16.5202C11.8021 16.0468 10.9168 15.7543 10 15.6637V10H10.625C12.4478 9.99801 14.1953 9.27305 15.4842 7.98417C16.773 6.69528 17.498 4.94775 17.5 3.125V1.25H15.625ZM8.125 8.75C7.2965 8.74901 6.50222 8.41945 5.91639 7.83361C5.33055 7.24778 5.00099 6.4535 5 5.625V5H5.625C6.45355 5.00083 7.24792 5.33033 7.8338 5.9162C8.41967 6.50208 8.74917 7.29645 8.75 8.125V8.75H8.125ZM16.25 3.125C16.2483 4.61633 15.6552 6.04611 14.6006 7.10065C13.5461 8.15518 12.1163 8.74835 10.625 8.75H10V8.125C10.0017 6.63367 10.5948 5.20389 11.6494 4.14935C12.7039 3.09482 14.1337 2.50165 15.625 2.5H16.25V3.125Z" fill="#F34A25"/>
</g>
</svg>
