<svg width="20" height="20" viewBox="0 0 20 20" fill="none" xmlns="http://www.w3.org/2000/svg">
<g id="icon made">
<path id="Vector" d="M18.0179 13.2313L15.6241 10.8563L16.0429 10.4375C16.1593 10.3204 16.2246 10.162 16.2246 9.99688C16.2246 9.83177 16.1593 9.67336 16.0429 9.55626L12.2929 5.80626C12.1758 5.68985 12.0174 5.62451 11.8522 5.62451C11.6871 5.62451 11.5287 5.68985 11.4116 5.80626L10.9179 6.30001L6.69287 2.05626C6.57577 1.93985 6.41736 1.87451 6.25224 1.87451C6.08713 1.87451 5.92872 1.93985 5.81162 2.05626L3.31162 4.55626L3.23662 4.65001L0.736619 8.40001C0.656376 8.51978 0.620007 8.66361 0.633676 8.80713C0.647344 8.95065 0.710209 9.08503 0.811619 9.18751L2.68662 11.0625C2.74472 11.1211 2.81385 11.1676 2.89001 11.1993C2.96617 11.231 3.04786 11.2474 3.13037 11.2474C3.21288 11.2474 3.29457 11.231 3.37073 11.1993C3.44689 11.1676 3.51602 11.1211 3.57412 11.0625L6.24912 8.38126L7.55537 9.68751L4.55537 12.6813C4.43896 12.7984 4.37362 12.9568 4.37362 13.1219C4.37362 13.287 4.43896 13.4454 4.55537 13.5625L5.80537 14.8125C5.86325 14.8716 5.93228 14.9185 6.00845 14.9507C6.08463 14.9829 6.16643 14.9997 6.24912 15C6.36401 14.9992 6.47646 14.9668 6.57412 14.9063L9.28037 13.2813L10.8054 14.8125C10.9225 14.9289 11.0809 14.9943 11.246 14.9943C11.4111 14.9943 11.5695 14.9289 11.6866 14.8125L12.1054 14.375L14.4741 16.7688C14.9432 17.2379 15.5795 17.5014 16.2429 17.5014C16.9063 17.5014 17.5425 17.2379 18.0116 16.7688C18.4807 16.2997 18.7443 15.6634 18.7443 15C18.7443 14.3366 18.4807 13.7004 18.0116 13.2313H18.0179ZM6.24912 6.61251L3.12412 9.73751L2.05537 8.66876L4.23662 5.39376L6.24912 3.38126L10.0554 7.18751L8.43662 8.80001L6.24912 6.61251ZM11.2491 13.4875L9.47412 11.7125L6.34912 13.5875L5.88662 13.125L11.8741 7.13126L14.7429 10L11.2491 13.4875ZM17.1366 15.8813C17.0205 15.9975 16.8827 16.0897 16.7309 16.1526C16.5792 16.2155 16.4165 16.2479 16.2522 16.2479C16.088 16.2479 15.9253 16.2155 15.7736 16.1526C15.6218 16.0897 15.484 15.9975 15.3679 15.8813L12.9929 13.5125L14.7616 11.7438L17.1366 14.1125C17.2528 14.2286 17.345 14.3665 17.4079 14.5182C17.4708 14.67 17.5032 14.8326 17.5032 14.9969C17.5032 15.1612 17.4708 15.3238 17.4079 15.4756C17.345 15.6273 17.2528 15.7652 17.1366 15.8813Z" fill="#F34A25"/>
</g>
</svg>
