<svg width="20" height="20" viewBox="0 0 20 20" fill="none" xmlns="http://www.w3.org/2000/svg">
<g id="icon dress" clip-path="url(#clip0_2912_1410)">
<path id="Vector" d="M16.7729 16.3828C16.7705 16.3761 16.7676 16.3696 16.7643 16.3633L13.2111 8.79609L14.8127 6.28203C14.8158 6.27752 14.8187 6.27283 14.8213 6.26797C14.9378 6.07373 14.9993 5.8515 14.9993 5.625C14.9993 5.3985 14.9378 5.17627 14.8213 4.98203C14.8143 4.96953 14.8057 4.95703 14.7979 4.94531L13.1244 2.55469V0.625C13.1244 0.45924 13.0586 0.300269 12.9414 0.183058C12.8241 0.065848 12.6652 0 12.4994 0C12.3337 0 12.1747 0.065848 12.0575 0.183058C11.9403 0.300269 11.8744 0.45924 11.8744 0.625V2.53281L11.4635 3.04688C11.2878 3.26643 11.065 3.44366 10.8116 3.56546C10.5582 3.68725 10.2806 3.75049 9.99942 3.75049C9.71824 3.75049 9.44066 3.68725 9.18723 3.56546C8.93381 3.44366 8.71101 3.26643 8.53535 3.04688L8.12442 2.53281V0.625C8.12442 0.45924 8.05857 0.300269 7.94136 0.183058C7.82415 0.065848 7.66518 0 7.49942 0C7.33366 0 7.17468 0.065848 7.05747 0.183058C6.94026 0.300269 6.87442 0.45924 6.87442 0.625V2.55469L5.20098 4.94531C5.19317 4.95703 5.18457 4.96953 5.17754 4.98203C5.06104 5.17627 4.9995 5.3985 4.9995 5.625C4.9995 5.8515 5.06104 6.07373 5.17754 6.26797C5.18012 6.27283 5.18299 6.27752 5.18613 6.28203L6.7877 8.79609L3.23457 16.3633C3.23124 16.3696 3.22837 16.3761 3.22598 16.3828C3.14456 16.5729 3.11156 16.7802 3.12995 16.9862C3.14834 17.1921 3.21754 17.3903 3.33135 17.563C3.44516 17.7356 3.60002 17.8773 3.78206 17.9754C3.9641 18.0735 4.16763 18.1249 4.37442 18.125H15.6244C15.8313 18.125 16.0349 18.0737 16.217 17.9757C16.3992 17.8777 16.5541 17.736 16.668 17.5633C16.7819 17.3906 16.8512 17.1924 16.8696 16.9864C16.8881 16.7803 16.8551 16.573 16.7736 16.3828H16.7729ZM6.24942 5.625L7.53301 3.79453L7.55879 3.82734C7.85155 4.19345 8.22292 4.48901 8.6454 4.69211C9.06789 4.89522 9.53065 5.00068 9.99942 5.00068C10.4682 5.00068 10.9309 4.89522 11.3534 4.69211C11.7759 4.48901 12.1473 4.19345 12.44 3.82734L12.4658 3.79453L13.7494 5.625L12.1572 8.125H7.84238L6.24942 5.625ZM4.37442 16.875L7.89551 9.375H12.1018L15.6244 16.875H4.37442Z" fill="#F34A25"/>
</g>
<defs>
<clipPath id="clip0_2912_1410">
<rect width="20" height="20" fill="white"/>
</clipPath>
</defs>
</svg>
