<svg width="23" height="24" viewBox="0 0 23 24" fill="none" xmlns="http://www.w3.org/2000/svg">
<g id="icon-park-solid:new-computer">
<g id="Mask group">
<mask id="mask0_2923_7839" style="mask-type:luminance" maskUnits="userSpaceOnUse" x="2" y="2" width="19" height="21">
<g id="Group">
<g id="Group_2">
<path id="Union" fill-rule="evenodd" clip-rule="evenodd" d="M2.06641 5.05561C2.06641 3.79763 3.0862 2.77783 4.34418 2.77783H18.2331C19.4911 2.77783 20.5109 3.79763 20.5109 5.05561V15.2408C20.5109 16.4988 19.4911 17.5186 18.2331 17.5186L12.1774 17.5186V20.3334H15.9181C16.409 20.3334 16.807 20.7314 16.807 21.2223C16.807 21.7132 16.409 22.1112 15.9181 22.1112H6.65885C6.16793 22.1112 5.76997 21.7132 5.76997 21.2223C5.76997 20.7314 6.16793 20.3334 6.65885 20.3334H10.3996V17.5186L4.34418 17.5186C3.0862 17.5186 2.06641 16.4988 2.06641 15.2408V5.05561Z" fill="white"/>
</g>
</g>
</mask>
<g mask="url(#mask0_2923_7839)">
<path id="Vector" d="M0.177734 0.888916H22.4V23.1111H0.177734V0.888916Z" fill="#F34A25"/>
</g>
</g>
</g>
</svg>
