<svg width="31" height="28" viewBox="0 0 31 28" fill="none" xmlns="http://www.w3.org/2000/svg">
<path d="M23.1992 2.94995H8.08811C7.58714 2.94995 7.1067 3.12906 6.75246 3.44787C6.39823 3.76668 6.19922 4.19908 6.19922 4.64995V23.35C6.19922 23.8008 6.39823 24.2332 6.75246 24.552C7.1067 24.8708 7.58714 25.05 8.08811 25.05H23.1992C23.7002 25.05 24.1806 24.8708 24.5349 24.552C24.8891 24.2332 25.0881 23.8008 25.0881 23.35V4.64995C25.0881 4.19908 24.8891 3.76668 24.5349 3.44787C24.1806 3.12906 23.7002 2.94995 23.1992 2.94995ZM15.6437 20.8C15.3635 20.8 15.0896 20.7252 14.8566 20.5851C14.6236 20.445 14.4421 20.2458 14.3348 20.0129C14.2276 19.7799 14.1996 19.5235 14.2542 19.2762C14.3089 19.0289 14.4438 18.8017 14.6419 18.6234C14.8401 18.4451 15.0925 18.3236 15.3673 18.2745C15.6421 18.2253 15.9269 18.2505 16.1858 18.347C16.4447 18.4435 16.6659 18.6069 16.8216 18.8166C16.9772 19.0263 17.0603 19.2728 17.0603 19.525C17.0603 19.8631 16.9111 20.1874 16.6454 20.4265C16.3797 20.6656 16.0194 20.8 15.6437 20.8ZM19.4214 12.3H11.8659C11.6154 12.3 11.3752 12.2104 11.1981 12.051C11.0209 11.8916 10.9214 11.6754 10.9214 11.45C10.9214 11.2245 11.0209 11.0083 11.1981 10.8489C11.3752 10.6895 11.6154 10.6 11.8659 10.6H19.4214C19.6719 10.6 19.9121 10.6895 20.0893 10.8489C20.2664 11.0083 20.3659 11.2245 20.3659 11.45C20.3659 11.6754 20.2664 11.8916 20.0893 12.051C19.9121 12.2104 19.6719 12.3 19.4214 12.3ZM19.4214 8.89995H11.8659C11.6154 8.89995 11.3752 8.8104 11.1981 8.65099C11.0209 8.49159 10.9214 8.27539 10.9214 8.04995C10.9214 7.82452 11.0209 7.60832 11.1981 7.44891C11.3752 7.28951 11.6154 7.19995 11.8659 7.19995H19.4214C19.6719 7.19995 19.9121 7.28951 20.0893 7.44891C20.2664 7.60832 20.3659 7.82452 20.3659 8.04995C20.3659 8.27539 20.2664 8.49159 20.0893 8.65099C19.9121 8.8104 19.6719 8.89995 19.4214 8.89995Z" fill="#F34A25"/>
</svg>
