<svg width="20" height="14" viewBox="0 0 20 14" fill="none" xmlns="http://www.w3.org/2000/svg">
<path id="Vector" d="M16.2494 6.2483C16.1944 6.2483 16.1413 6.25455 16.0869 6.25643L15.1478 1.87449H17.499V0.62483H14.3749C14.2817 0.624803 14.1897 0.645628 14.1055 0.685781C14.0214 0.725935 13.9474 0.784398 13.8888 0.856888C13.8302 0.929379 13.7885 1.01406 13.7669 1.10473C13.7453 1.19539 13.7442 1.28975 13.7638 1.38088L14.1375 3.12415H7.74357L7.11874 1.24966H8.75142V0H4.37761V1.24966H5.80222L6.45267 3.20101L4.84686 6.41263C4.11807 6.18943 3.33856 6.19366 2.61223 6.42477C1.88591 6.65589 1.24729 7.1029 0.781497 7.70621C0.315705 8.30953 0.0448742 9.0405 0.00510746 9.80166C-0.0346593 10.5628 0.158528 11.318 0.558915 11.9666C0.959303 12.6152 1.54787 13.1263 2.24615 13.4318C2.94444 13.7374 3.71926 13.8228 4.46735 13.6768C5.21543 13.5307 5.90122 13.1601 6.4333 12.6144C6.96539 12.0686 7.31849 11.3737 7.44553 10.6221H9.07633C9.26381 10.6226 9.44897 10.5807 9.61798 10.4995C9.78698 10.4184 9.93546 10.3001 10.0523 10.1535L14.4624 4.63999L14.8648 6.51698C14.0003 6.86348 13.2961 7.51982 12.8897 8.35779C12.4833 9.19575 12.4039 10.1551 12.667 11.0485C12.9302 11.9419 13.5169 12.705 14.3126 13.1889C15.1084 13.6728 16.056 13.8426 16.9702 13.6652C17.8845 13.4878 18.6998 12.9759 19.2568 12.2296C19.8138 11.4832 20.0725 10.5559 19.9824 9.62899C19.8924 8.70205 19.4599 7.84198 18.7696 7.21683C18.0793 6.59168 17.1807 6.24635 16.2494 6.2483ZM3.75278 12.4966C3.402 12.4973 3.05501 12.4241 2.73437 12.2819C2.41373 12.1396 2.12663 11.9314 1.89173 11.6709C1.65684 11.4104 1.47942 11.1033 1.371 10.7697C1.26259 10.4361 1.22562 10.0834 1.26248 9.7346C1.29935 9.38577 1.40924 9.0486 1.58499 8.74502C1.76075 8.44145 1.99844 8.17827 2.2826 7.97261C2.56677 7.76695 2.89104 7.6234 3.23433 7.55132C3.57763 7.47923 3.93225 7.48021 4.27514 7.5542L3.19418 9.71799L3.1998 9.72049C3.15441 9.80581 3.12979 9.90065 3.12795 9.99729C3.127 10.1379 3.17382 10.2746 3.26076 10.3851C3.34769 10.4956 3.46958 10.5733 3.60644 10.6055C3.74331 10.6376 3.88704 10.6224 4.01409 10.5622C4.14115 10.502 4.24398 10.4004 4.30575 10.2741L4.312 10.2766L5.38796 8.1228C5.77337 8.45498 6.04771 8.89731 6.174 9.3902C6.3003 9.88309 6.27248 10.4028 6.0943 10.8794C5.91612 11.356 5.59615 11.7666 5.17748 12.0557C4.75882 12.3449 4.26158 12.4987 3.75278 12.4966ZM7.44553 9.37246C7.28191 8.41104 6.75003 7.55125 5.9628 6.97561L7.01127 4.87743L8.50961 9.37246H7.44553ZM9.60619 8.71014L8.16033 4.37381H13.0746L9.60619 8.71014ZM16.2494 12.4966C15.6868 12.4984 15.1401 12.3097 14.6984 11.9613C14.2566 11.6129 13.9458 11.1252 13.8164 10.5777C13.6871 10.0302 13.7468 9.45496 13.9859 8.94569C14.2251 8.43643 14.6295 8.02307 15.1334 7.77289L15.6383 10.1285L15.6508 10.126C15.6784 10.2649 15.7529 10.39 15.862 10.4804C15.971 10.5708 16.1078 10.6208 16.2494 10.6221C16.4151 10.6221 16.574 10.5563 16.6912 10.4391C16.8084 10.3219 16.8742 10.163 16.8742 9.99729C16.8703 9.95354 16.8615 9.91037 16.848 9.86857L16.8605 9.86607L16.3556 7.50859C17.0094 7.53381 17.6271 7.81481 18.0756 8.29106C18.5242 8.76731 18.7677 9.40071 18.7538 10.0548C18.7399 10.7089 18.4696 11.3313 18.0012 11.7881C17.5327 12.2448 16.9036 12.4992 16.2494 12.4966Z" fill="#F34A25"/>
</svg>
