<svg width="20" height="20" viewBox="0 0 20 20" fill="none" xmlns="http://www.w3.org/2000/svg">
<g id="carbon:ruler-alt">
<path id="Vector" d="M18.3818 13.544L6.4631 1.6127C6.34701 1.49648 6.20915 1.40428 6.0574 1.34138C5.90565 1.27847 5.74299 1.24609 5.57873 1.24609C5.41446 1.24609 5.2518 1.27847 5.10005 1.34138C4.9483 1.40428 4.81044 1.49648 4.69435 1.6127L1.61935 4.69395C1.38654 4.92816 1.25586 5.24497 1.25586 5.5752C1.25586 5.90543 1.38654 6.22225 1.61935 6.45645L13.5381 18.3877C13.6549 18.5036 13.7934 18.5952 13.9457 18.6574C14.098 18.7196 14.2611 18.7512 14.4256 18.7502C14.7557 18.7505 15.0725 18.6202 15.3068 18.3877L18.3818 15.3065C18.6147 15.0722 18.7453 14.7554 18.7453 14.4252C18.7453 14.095 18.6147 13.7782 18.3818 13.544ZM14.4256 17.5002L2.5006 5.5752L5.5756 2.5002L7.94435 4.86895L6.5381 6.2502L7.41935 7.13145L8.8256 5.7502L11.4068 8.33145L10.0006 9.7377L10.8881 10.6252L12.2943 9.21895L14.8756 11.8002L13.4693 13.2065L14.3756 14.0877L15.7818 12.6815L17.5006 14.4252L14.4256 17.5002Z" fill="#F34A25"/>
</g>
</svg>
