<svg width="20" height="19" viewBox="0 0 20 19" fill="none" xmlns="http://www.w3.org/2000/svg">
<g id="Group">
<path id="Vector" d="M14.2871 1.14307H5.71568C4.9267 1.14307 4.28711 1.78266 4.28711 2.57164V9.71449C4.28711 10.5035 4.9267 11.1431 5.71568 11.1431H14.2871C15.0761 11.1431 15.7157 10.5035 15.7157 9.71449V2.57164C15.7157 1.78266 15.0761 1.14307 14.2871 1.14307Z" stroke="#F34A25" stroke-linecap="round" stroke-linejoin="round"/>
<path id="Vector_2" d="M4.28627 5.42871H2.14342C1.76453 5.42871 1.40117 5.57922 1.13326 5.84713C0.865354 6.11504 0.714844 6.4784 0.714844 6.85728V13.2859C0.714844 13.6647 0.865354 14.0281 1.13326 14.296C1.40117 14.5639 1.76453 14.7144 2.14342 14.7144H17.8577C18.2366 14.7144 18.5999 14.5639 18.8679 14.296C19.1358 14.0281 19.2863 13.6647 19.2863 13.2859V6.85728C19.2863 6.4784 19.1358 6.11504 18.8679 5.84713C18.5999 5.57922 18.2366 5.42871 17.8577 5.42871H15.7148M5.71484 14.7144L5.00056 18.2859M14.2863 14.7144L15.0006 18.2859" stroke="#F34A25" stroke-linecap="round" stroke-linejoin="round"/>
</g>
</svg>
