<svg width="20" height="20" viewBox="0 0 20 20" fill="none" xmlns="http://www.w3.org/2000/svg">
<g id="icon cet">
<path id="Vector" d="M4.54944 18.75H14.6032C15.6757 18.75 16.5444 17.88 16.5444 16.8075V8.6425C18.3032 8.51625 19.3394 6.5475 18.3882 5.01125L17.8444 4.13375C17.6311 3.789 17.3332 3.50447 16.979 3.30715C16.6248 3.10983 16.2261 3.00625 15.8207 3.00625H14.3507V2.4025C14.3509 2.25121 14.3212 2.10137 14.2634 1.96155C14.2056 1.82173 14.1209 1.69467 14.0139 1.58764C13.907 1.4806 13.78 1.39569 13.6403 1.33775C13.5005 1.27982 13.3507 1.25 13.1994 1.25C12.4747 1.25 11.7797 1.53789 11.2673 2.05033C10.7548 2.56277 10.4669 3.2578 10.4669 3.9825V7.6525C9.09694 7.80625 8.05444 8.4675 7.28944 9.3875C6.42944 10.42 5.92694 11.7613 5.62694 13.0425C5.36914 14.1983 5.22263 15.3762 5.18944 16.56C5.17694 16.925 5.17694 17.245 5.17944 17.5H4.55069C4.15065 17.5 3.75932 17.3832 3.42481 17.1638C3.0903 16.9444 2.82719 16.6321 2.66783 16.2651C2.50847 15.8982 2.45981 15.4927 2.52783 15.0985C2.59585 14.7043 2.77758 14.3386 3.05069 14.0463L4.04694 12.9775C4.74861 12.225 5.13084 11.2295 5.11312 10.2008C5.0954 9.17209 4.67911 8.19039 3.95194 7.4625L2.97444 6.48375C2.91678 6.42406 2.84782 6.37644 2.77156 6.34369C2.69531 6.31093 2.6133 6.29369 2.53031 6.29297C2.44733 6.29225 2.36503 6.30806 2.28822 6.33949C2.21141 6.37091 2.14162 6.41732 2.08294 6.476C2.02426 6.53469 1.97785 6.60447 1.94642 6.68128C1.915 6.75809 1.89918 6.84039 1.89991 6.92338C1.90063 7.00636 1.91787 7.08838 1.95062 7.16463C1.98338 7.24088 2.03099 7.30985 2.09069 7.3675L3.06944 8.34625C3.5679 8.84487 3.85327 9.51756 3.8654 10.2225C3.87752 10.9274 3.61545 11.6095 3.13444 12.125L2.13694 13.1938C1.69843 13.6642 1.40679 14.2525 1.29779 14.8864C1.18879 15.5202 1.26718 16.1721 1.52333 16.762C1.77948 17.352 2.20227 17.8543 2.73981 18.2075C3.27735 18.5606 3.90628 18.7492 4.54944 18.75ZM13.1007 2.50375V3.63125C13.1007 3.79701 13.1665 3.95598 13.2837 4.07319C13.401 4.1904 13.5599 4.25625 13.7257 4.25625H15.8207C16.2119 4.25625 16.5757 4.45875 16.7832 4.7925L17.3269 5.67C17.4336 5.84143 17.4924 6.03828 17.4973 6.24011C17.5022 6.44194 17.4529 6.6414 17.3547 6.81779C17.2565 6.99419 17.1129 7.14109 16.9388 7.24324C16.7646 7.3454 16.5663 7.39909 16.3644 7.39875H15.9207C15.7549 7.39875 15.596 7.4646 15.4787 7.58181C15.3615 7.69902 15.2957 7.85799 15.2957 8.02375V16.8075C15.2957 16.9912 15.2227 17.1673 15.0929 17.2972C14.963 17.427 14.7868 17.5 14.6032 17.5H13.9119V16.8075C13.9121 16.3794 13.8279 15.9556 13.6642 15.56C13.5005 15.1645 13.2605 14.8051 12.9579 14.5024C12.6553 14.1997 12.296 13.9595 11.9005 13.7957C11.5051 13.6318 11.0812 13.5475 10.6532 13.5475H9.55569C9.38993 13.5475 9.23096 13.6133 9.11375 13.7306C8.99653 13.8478 8.93069 14.0067 8.93069 14.1725C8.93069 14.3383 8.99653 14.4972 9.11375 14.6144C9.23096 14.7317 9.38993 14.7975 9.55569 14.7975H10.6532C11.7619 14.7975 12.6619 15.6975 12.6619 16.8075V17.5H6.42944C6.42569 17.2588 6.42694 16.9538 6.43819 16.6012C6.46819 15.6988 6.56944 14.5075 6.84444 13.3263C7.12194 12.1363 7.56569 11.0075 8.24944 10.1875C8.91319 9.39 9.81194 8.86875 11.0919 8.86875C11.2577 8.86875 11.4167 8.8029 11.5339 8.68569C11.6511 8.56848 11.7169 8.40951 11.7169 8.24375V3.9825C11.7169 3.1975 12.3282 2.55375 13.1007 2.50375Z" fill="#F34A25"/>
</g>
</svg>
