<svg width="20" height="20" viewBox="0 0 20 20" fill="none" xmlns="http://www.w3.org/2000/svg">
<g id="icon teddy">
<path id="Vector" d="M14.5826 3.229C15.2838 3.22904 15.9681 3.44349 16.5439 3.84359C17.1197 4.24369 17.5594 4.8103 17.804 5.46741C18.0486 6.12453 18.0864 6.84073 17.9123 7.51993C17.7382 8.19914 17.3606 8.80887 16.8301 9.26734C17.0618 9.8915 17.1868 10.5573 17.1868 11.2498C17.1868 13.2415 16.1509 15.0157 14.5368 16.1782C14.3009 16.3482 14.0534 16.504 13.7951 16.6465L13.7643 16.6632C12.6075 17.2863 11.3132 17.6098 9.99928 17.604C8.6854 17.6097 7.39101 17.2863 6.23428 16.6632C5.98041 16.5251 5.73497 16.3721 5.49928 16.2048L5.46178 16.1782C3.84761 15.0157 2.81178 13.2415 2.81178 11.2498C2.81178 10.5582 2.93678 9.8915 3.16844 9.26734C2.78711 8.93731 2.48307 8.52742 2.27787 8.06674C2.07268 7.60606 1.97136 7.10588 1.98111 6.60166C1.99086 6.09744 2.11143 5.60155 2.33427 5.14914C2.55712 4.69674 2.87678 4.2989 3.27058 3.98386C3.66438 3.66882 4.12268 3.44429 4.61297 3.32619C5.10325 3.20809 5.61352 3.19931 6.10758 3.30048C6.60164 3.40166 7.06739 3.6103 7.47179 3.91161C7.87619 4.21293 8.20934 4.59953 8.44761 5.044C8.95888 4.94495 9.47849 4.89527 9.99928 4.89567C10.5326 4.89567 11.0509 4.9465 11.5509 5.044C11.8446 4.49533 12.2817 4.0367 12.8156 3.71704C13.3496 3.39738 13.9603 3.2287 14.5826 3.229ZM11.2684 13.664C11.1768 13.834 11.0184 13.9757 10.8243 14.0782C10.5943 14.1998 10.3076 14.2707 9.99928 14.2707C9.69094 14.2707 9.40427 14.1998 9.17427 14.079C8.98888 13.9873 8.83466 13.843 8.73094 13.664C8.26003 13.8394 7.8303 14.11 7.46857 14.4588C7.10684 14.8077 6.82085 15.2273 6.62844 15.6915C7.65759 16.269 8.81918 16.5691 9.99928 16.5623C11.1794 16.5691 12.341 16.269 13.3701 15.6915C13.1783 15.2269 12.8925 14.807 12.5307 14.4581C12.1689 14.1092 11.7397 13.8389 11.2684 13.664ZM9.99928 5.93734C6.56927 5.93734 3.85344 8.354 3.85344 11.2498C3.85344 12.749 4.57844 14.1165 5.75511 15.0898C6.13343 14.2837 6.73351 13.602 7.48512 13.1245C8.23673 12.647 9.1088 12.3934 9.99928 12.3934C10.8898 12.3934 11.7618 12.647 12.5134 13.1245C13.265 13.602 13.8651 14.2837 14.2434 15.0898C15.4201 14.1165 16.1451 12.7482 16.1451 11.2498C16.1451 8.354 13.4284 5.93734 9.99928 5.93734ZM5.41594 4.27067C4.95165 4.27057 4.49733 4.40537 4.10823 4.65869C3.71913 4.91201 3.41202 5.27294 3.22425 5.69757C3.03648 6.1222 2.97613 6.59224 3.05055 7.05053C3.12497 7.50882 3.33095 7.93561 3.64344 8.279C4.45011 6.934 5.78511 5.87734 7.40094 5.32317C7.18127 4.99889 6.88546 4.73339 6.53942 4.54991C6.19337 4.36642 5.80762 4.27055 5.41594 4.27067ZM14.5826 4.27067C13.7701 4.27067 13.0343 4.679 12.5976 5.32317C14.2143 5.87734 15.5484 6.934 16.3551 8.279C16.6676 7.93561 16.8736 7.50882 16.948 7.05053C17.0224 6.59224 16.9621 6.1222 16.7743 5.69757C16.5865 5.27294 16.2794 4.91201 15.8903 4.65869C15.5012 4.40537 15.0469 4.27057 14.5826 4.27067Z" fill="#F34A25"/>
</g>
</svg>
